<svg width="2016" height="459" viewBox="0 0 2016 459" fill="none" xmlns="http://www.w3.org/2000/svg">
<rect y="10.6992" width="437.602" height="437.602" rx="35.3617" fill="#222222"/>
<path d="M94 110.096C94 99.2087 94 93.7648 97.3824 90.3824C100.765 87 106.209 87 117.096 87H186.386C197.273 87 202.717 87 206.1 90.3824C209.482 93.7648 209.482 99.2087 209.482 110.096V349.144C209.482 360.032 209.482 365.476 206.1 368.858C202.717 372.241 197.273 372.241 186.386 372.241H117.096C106.209 372.241 100.765 372.241 97.3824 368.858C94 365.476 94 360.032 94 349.144V110.096Z" fill="url(#paint0_linear_915_44780)"/>
<path d="M227.959 97.4984C227.959 91.7003 232.659 87 238.457 87H265.403C308.502 87 343.441 121.939 343.441 165.038C343.441 169.348 339.947 172.842 335.637 172.842H251.055C240.168 172.842 234.724 172.842 231.341 169.459C227.959 166.077 227.959 160.633 227.959 149.745V97.4984Z" fill="white"/>
<rect x="227.959" y="186.699" width="115.482" height="85.8417" rx="11.5482" fill="url(#paint1_linear_915_44780)"/>
<path d="M227.959 309.496C227.959 298.608 227.959 293.164 231.341 289.782C234.724 286.399 240.168 286.399 251.055 286.399H335.637C339.947 286.399 343.441 289.893 343.441 294.203C343.441 337.302 308.502 372.241 265.403 372.241H238.457C232.659 372.241 227.959 367.541 227.959 361.743V309.496Z" fill="white"/>
<path d="M610.422 68.3888C630.763 68.3888 648.607 72.3645 663.956 80.3161C679.489 88.2676 691.416 99.6402 699.738 114.434C708.244 129.043 712.497 146.055 712.497 165.472C712.497 184.888 708.244 201.901 699.738 216.51C691.416 230.933 679.489 242.121 663.956 250.073C648.607 258.024 630.763 262 610.422 262H542.741V68.3888H610.422ZM609.035 228.992C629.376 228.992 645.094 223.444 656.189 212.349C667.284 201.254 672.832 185.628 672.832 165.472C672.832 145.315 667.284 129.597 656.189 118.317C645.094 106.852 629.376 101.12 609.035 101.12H581.574V228.992H609.035ZM788.721 99.7327V148.274H853.905V179.063H788.721V230.379H862.226V262H749.887V68.1114H862.226V99.7327H788.721ZM1071.43 262H1032.6L944.671 129.135V262H905.838V68.1114H944.671L1032.6 201.254V68.1114H1071.43V262ZM1249.89 68.3888V99.7327H1198.29V262H1159.46V99.7327H1107.87V68.3888H1249.89ZM1386.4 262L1343.68 186.553H1325.37V262H1286.54V68.3888H1359.22C1374.19 68.3888 1386.95 71.0701 1397.49 76.4328C1408.03 81.6105 1415.89 88.73 1421.07 97.791C1426.43 106.667 1429.12 116.653 1429.12 127.748C1429.12 140.508 1425.42 152.065 1418.02 162.421C1410.62 172.591 1399.62 179.618 1385.01 183.501L1431.33 262H1386.4ZM1325.37 157.428H1357.83C1368.37 157.428 1376.23 154.931 1381.41 149.938C1386.58 144.761 1389.17 137.641 1389.17 128.58C1389.17 119.704 1386.58 112.862 1381.41 108.054C1376.23 103.061 1368.37 100.565 1357.83 100.565H1325.37V157.428ZM1511.39 99.7327V148.274H1576.58V179.063H1511.39V230.379H1584.9V262H1472.56V68.1114H1584.9V99.7327H1511.39ZM1747.23 225.108H1670.12L1657.36 262H1616.58L1686.21 68.1114H1731.42L1801.04 262H1759.99L1747.23 225.108ZM1736.69 194.042L1708.67 113.047L1680.66 194.042H1736.69ZM1903.07 68.3888C1923.41 68.3888 1941.25 72.3645 1956.6 80.3161C1972.13 88.2676 1984.06 99.6402 1992.38 114.434C2000.89 129.043 2005.14 146.055 2005.14 165.472C2005.14 184.888 2000.89 201.901 1992.38 216.51C1984.06 230.933 1972.13 242.121 1956.6 250.073C1941.25 258.024 1923.41 262 1903.07 262H1835.39V68.3888H1903.07ZM1901.68 228.992C1922.02 228.992 1937.74 223.444 1948.83 212.349C1959.93 201.254 1965.48 185.628 1965.48 165.472C1965.48 145.315 1959.93 129.597 1948.83 118.317C1937.74 106.852 1922.02 101.12 1901.68 101.12H1874.22V228.992H1901.68Z" fill="#222222"/>
<path d="M553.055 364.628V425H538.349V364.628H553.055ZM620.3 425H605.594L580.998 387.762V425H566.292V364.628H580.998L605.594 402.038V364.628H620.3V425ZM687.548 425H672.842L648.246 387.762V425H633.54V364.628H648.246L672.842 402.038V364.628H687.548V425ZM729.34 425.602C723.664 425.602 718.446 424.283 713.688 421.646C708.986 419.009 705.231 415.339 702.422 410.638C699.67 405.879 698.294 400.547 698.294 394.642C698.294 388.737 699.67 383.433 702.422 378.732C705.231 374.031 708.986 370.361 713.688 367.724C718.446 365.087 723.664 363.768 729.34 363.768C735.016 363.768 740.204 365.087 744.906 367.724C749.664 370.361 753.391 374.031 756.086 378.732C758.838 383.433 760.214 388.737 760.214 394.642C760.214 400.547 758.838 405.879 756.086 410.638C753.334 415.339 749.607 419.009 744.906 421.646C740.204 424.283 735.016 425.602 729.34 425.602ZM729.34 412.186C734.156 412.186 737.997 410.581 740.864 407.37C743.788 404.159 745.25 399.917 745.25 394.642C745.25 389.31 743.788 385.067 740.864 381.914C737.997 378.703 734.156 377.098 729.34 377.098C724.466 377.098 720.568 378.675 717.644 381.828C714.777 384.981 713.344 389.253 713.344 394.642C713.344 399.974 714.777 404.245 717.644 407.456C720.568 410.609 724.466 412.186 729.34 412.186ZM827.649 364.628L806.235 425H787.831L766.417 364.628H782.069L797.033 410.208L812.083 364.628H827.649ZM873.958 414.336H851.426L847.814 425H832.42L854.264 364.628H871.292L893.136 425H877.57L873.958 414.336ZM870.174 402.984L862.692 380.882L855.296 402.984H870.174ZM945.794 364.628V376.41H929.798V425H915.092V376.41H899.096V364.628H945.794ZM970.46 364.628V425H955.754V364.628H970.46ZM1012.25 425.602C1006.57 425.602 1001.36 424.283 996.598 421.646C991.896 419.009 988.141 415.339 985.332 410.638C982.58 405.879 981.204 400.547 981.204 394.642C981.204 388.737 982.58 383.433 985.332 378.732C988.141 374.031 991.896 370.361 996.598 367.724C1001.36 365.087 1006.57 363.768 1012.25 363.768C1017.93 363.768 1023.11 365.087 1027.82 367.724C1032.57 370.361 1036.3 374.031 1039 378.732C1041.75 383.433 1043.12 388.737 1043.12 394.642C1043.12 400.547 1041.75 405.879 1039 410.638C1036.24 415.339 1032.52 419.009 1027.82 421.646C1023.11 424.283 1017.93 425.602 1012.25 425.602ZM1012.25 412.186C1017.07 412.186 1020.91 410.581 1023.77 407.37C1026.7 404.159 1028.16 399.917 1028.16 394.642C1028.16 389.31 1026.7 385.067 1023.77 381.914C1020.91 378.703 1017.07 377.098 1012.25 377.098C1007.38 377.098 1003.48 378.675 1000.55 381.828C997.687 384.981 996.254 389.253 996.254 394.642C996.254 399.974 997.687 404.245 1000.55 407.456C1003.48 410.609 1007.38 412.186 1012.25 412.186ZM1107.89 425H1093.19L1068.59 387.762V425H1053.88V364.628H1068.59L1093.19 402.038V364.628H1107.89V425ZM1185.37 364.628V376.41H1169.37V425H1154.67V376.41H1138.67V364.628H1185.37ZM1247.62 364.628V425H1232.91V400.146H1210.03V425H1195.33V364.628H1210.03V388.278H1232.91V364.628H1247.62ZM1291.6 425L1279.04 402.21H1275.52V425H1260.81V364.628H1285.49C1290.25 364.628 1294.3 365.459 1297.62 367.122C1301 368.785 1303.53 371.078 1305.19 374.002C1306.85 376.869 1307.68 380.079 1307.68 383.634C1307.68 387.647 1306.54 391.231 1304.24 394.384C1302.01 397.537 1298.68 399.773 1294.27 401.092L1308.2 425H1291.6ZM1275.52 391.804H1284.63C1287.33 391.804 1289.34 391.145 1290.65 389.826C1292.03 388.507 1292.72 386.644 1292.72 384.236C1292.72 381.943 1292.03 380.137 1290.65 378.818C1289.34 377.499 1287.33 376.84 1284.63 376.84H1275.52V391.804ZM1348.05 425.602C1342.37 425.602 1337.15 424.283 1332.39 421.646C1327.69 419.009 1323.94 415.339 1321.13 410.638C1318.38 405.879 1317 400.547 1317 394.642C1317 388.737 1318.38 383.433 1321.13 378.732C1323.94 374.031 1327.69 370.361 1332.39 367.724C1337.15 365.087 1342.37 363.768 1348.05 363.768C1353.72 363.768 1358.91 365.087 1363.61 367.724C1368.37 370.361 1372.1 374.031 1374.79 378.732C1377.54 383.433 1378.92 388.737 1378.92 394.642C1378.92 400.547 1377.54 405.879 1374.79 410.638C1372.04 415.339 1368.31 419.009 1363.61 421.646C1358.91 424.283 1353.72 425.602 1348.05 425.602ZM1348.05 412.186C1352.86 412.186 1356.7 410.581 1359.57 407.37C1362.49 404.159 1363.96 399.917 1363.96 394.642C1363.96 389.31 1362.49 385.067 1359.57 381.914C1356.7 378.703 1352.86 377.098 1348.05 377.098C1343.17 377.098 1339.27 378.675 1336.35 381.828C1333.48 384.981 1332.05 389.253 1332.05 394.642C1332.05 399.974 1333.48 404.245 1336.35 407.456C1339.27 410.609 1343.17 412.186 1348.05 412.186ZM1404.13 364.628V400.748C1404.13 404.36 1405.02 407.141 1406.8 409.09C1408.57 411.039 1411.18 412.014 1414.62 412.014C1418.06 412.014 1420.7 411.039 1422.53 409.09C1424.37 407.141 1425.29 404.36 1425.29 400.748V364.628H1439.99V400.662C1439.99 406.051 1438.84 410.609 1436.55 414.336C1434.26 418.063 1431.16 420.872 1427.26 422.764C1423.42 424.656 1419.12 425.602 1414.36 425.602C1409.6 425.602 1405.33 424.685 1401.55 422.85C1397.82 420.958 1394.87 418.149 1392.69 414.422C1390.51 410.638 1389.42 406.051 1389.42 400.662V364.628H1404.13ZM1492.97 383.72C1491.88 381.713 1490.31 380.194 1488.24 379.162C1486.24 378.073 1483.86 377.528 1481.11 377.528C1476.35 377.528 1472.53 379.105 1469.67 382.258C1466.8 385.354 1465.37 389.511 1465.37 394.728C1465.37 400.289 1466.86 404.647 1469.84 407.8C1472.88 410.896 1477.04 412.444 1482.31 412.444C1485.92 412.444 1488.96 411.527 1491.43 409.692C1493.95 407.857 1495.78 405.22 1496.93 401.78H1478.27V390.944H1510.26V404.618C1509.17 408.287 1507.31 411.699 1504.67 414.852C1502.09 418.005 1498.79 420.557 1494.78 422.506C1490.77 424.455 1486.24 425.43 1481.19 425.43C1475.23 425.43 1469.9 424.14 1465.2 421.56C1460.55 418.923 1456.91 415.282 1454.27 410.638C1451.69 405.994 1450.4 400.691 1450.4 394.728C1450.4 388.765 1451.69 383.462 1454.27 378.818C1456.91 374.117 1460.55 370.476 1465.2 367.896C1469.84 365.259 1475.14 363.94 1481.11 363.94C1488.33 363.94 1494.41 365.689 1499.34 369.186C1504.33 372.683 1507.62 377.528 1509.23 383.72H1492.97ZM1573.27 364.628V425H1558.57V400.146H1535.69V425H1520.99V364.628H1535.69V388.278H1558.57V364.628H1573.27ZM1621.98 364.628V425H1607.27V364.628H1621.98ZM1703.59 364.628V425H1688.88V388.794L1675.38 425H1663.51L1649.92 388.708V425H1635.22V364.628H1652.59L1669.53 406.424L1686.3 364.628H1703.59ZM1754.33 414.336H1731.79L1728.18 425H1712.79L1734.63 364.628H1751.66L1773.5 425H1757.94L1754.33 414.336ZM1750.54 402.984L1743.06 380.882L1735.66 402.984H1750.54ZM1822.81 383.72C1821.72 381.713 1820.14 380.194 1818.08 379.162C1816.07 378.073 1813.69 377.528 1810.94 377.528C1806.18 377.528 1802.37 379.105 1799.5 382.258C1796.63 385.354 1795.2 389.511 1795.2 394.728C1795.2 400.289 1796.69 404.647 1799.67 407.8C1802.71 410.896 1806.87 412.444 1812.14 412.444C1815.76 412.444 1818.79 411.527 1821.26 409.692C1823.78 407.857 1825.62 405.22 1826.76 401.78H1808.1V390.944H1840.09V404.618C1839 408.287 1837.14 411.699 1834.5 414.852C1831.92 418.005 1828.63 420.557 1824.61 422.506C1820.6 424.455 1816.07 425.43 1811.03 425.43C1805.06 425.43 1799.73 424.14 1795.03 421.56C1790.39 418.923 1786.74 415.282 1784.11 410.638C1781.53 405.994 1780.24 400.691 1780.24 394.728C1780.24 388.765 1781.53 383.462 1784.11 378.818C1786.74 374.117 1790.39 370.476 1795.03 367.896C1799.67 365.259 1804.98 363.94 1810.94 363.94C1818.16 363.94 1824.24 365.689 1829.17 369.186C1834.16 372.683 1837.46 377.528 1839.06 383.72H1822.81ZM1865.53 364.628V425H1850.82V364.628H1865.53ZM1932.77 425H1918.06L1893.47 387.762V425H1878.76V364.628H1893.47L1918.06 402.038V364.628H1932.77V425ZM1986.09 383.72C1985 381.713 1983.42 380.194 1981.36 379.162C1979.35 378.073 1976.97 377.528 1974.22 377.528C1969.46 377.528 1965.65 379.105 1962.78 382.258C1959.91 385.354 1958.48 389.511 1958.48 394.728C1958.48 400.289 1959.97 404.647 1962.95 407.8C1965.99 410.896 1970.15 412.444 1975.42 412.444C1979.03 412.444 1982.07 411.527 1984.54 409.692C1987.06 407.857 1988.9 405.22 1990.04 401.78H1971.38V390.944H2003.37V404.618C2002.28 408.287 2000.42 411.699 1997.78 414.852C1995.2 418.005 1991.91 420.557 1987.89 422.506C1983.88 424.455 1979.35 425.43 1974.3 425.43C1968.34 425.43 1963.01 424.14 1958.31 421.56C1953.66 418.923 1950.02 415.282 1947.39 410.638C1944.81 405.994 1943.52 400.691 1943.52 394.728C1943.52 388.765 1944.81 383.462 1947.39 378.818C1950.02 374.117 1953.66 370.476 1958.31 367.896C1962.95 365.259 1968.26 363.94 1974.22 363.94C1981.44 363.94 1987.52 365.689 1992.45 369.186C1997.44 372.683 2000.74 377.528 2002.34 383.72H1986.09Z" fill="#222222" fill-opacity="0.9"/>
<defs>
<linearGradient id="paint0_linear_915_44780" x1="94" y1="87" x2="94" y2="372.241" gradientUnits="userSpaceOnUse">
<stop stop-color="#4776E6"/>
<stop offset="1" stop-color="#8E54E9"/>
</linearGradient>
<linearGradient id="paint1_linear_915_44780" x1="227.959" y1="186.699" x2="227.959" y2="272.541" gradientUnits="userSpaceOnUse">
<stop stop-color="#4776E6"/>
<stop offset="1" stop-color="#8E54E9"/>
</linearGradient>
</defs>
</svg>
